<svg xmlns="http://www.w3.org/2000/svg" height="800" width="1200" viewBox="-45 -68.31 390 409.86"><path d="M300 273.24H0V0h300z"/><path d="M146.908 190.035h122.645v-33.902h-83.228v-28.83h74.143V96.825h-74.143V70.302h81.122v-31.54H146.908zm-57-85.627c15.88 0 21.394 15.513 21.394 29.506 0 15.02-5.513 31.724-21.632 31.724-16.32 0-21.796-12.473-21.796-31.724 0-22.712 12.29-29.506 22.034-29.506M33.11 190.035h34.325v-12.711h.44c6.96 10.367 17.583 15.861 30.294 15.861 34.526 0 49.124-29.653 49.124-60.608 0-28.535-15.24-55.699-46.377-55.699-13.553 0-23.92 5.11-31.375 15.239h-.366V38.763H33.11zm228.613 22.681c0 2.784-1.392 4.36-4.927 4.36h-6.374v-8.609h6.557c3.407 0 4.744 1.704 4.744 4.25m11.667 26.265l-7.876-15.037c4.341-1.96 7.125-5.642 7.125-11.522 0-9.322-6.172-12.821-15.385-12.821h-17.62v39.38h10.788v-13.279h4.36l6.41 13.279zm-38.702-16.851v-22.529h-11.1v22.529c0 4.891-1.85 7.822-6.08 7.822-4.286 0-6.21-2.931-6.21-7.822v-22.529H200.2v22.529c0 12.547 7.235 17.492 17.144 17.492 9.89 0 17.345-4.945 17.345-17.492m-49.16-2.784c0 7.089-2.473 10.733-6.796 10.733-4.432 0-6.996-3.81-6.996-10.86 0-7.07 2.454-10.753 6.85-10.753 4.396 0 6.942 3.81 6.942 10.88m11.337-.147c0-13.077-7.473-20.24-18.133-20.24-10.714 0-18.279 7.309-18.279 20.368 0 13.114 7.455 20.276 18.133 20.276 10.697 0 18.28-7.308 18.28-20.404m-40.278-19.617H145.47v39.362h11.118zm-14.213 0h-12.144l-2.875 10.55c-1.356 5.001-3.26 12.895-3.993 16.704-.715-3.81-2.62-11.795-4.011-16.704l-2.858-10.55h-12.217l13.5 39.38h11.044zm-48.94 23.774h-6.503l.733-2.545c1.41-5.055 1.996-7.199 2.546-9.836.476 2.637 1.117 4.725 2.49 9.836zm16.612 15.606l-14.287-39.38H84.752l-14.305 39.38h11.704l2.125-6.924H96.09l2.143 6.924zm-42.402 0v-39.38H56.527v14.323H44.255v-14.323H33.12v39.38h11.136V223.43h12.272v15.532z" fill="#fff"/></svg>