<?xml version="1.0" encoding="iso-8859-1"?>
<!-- Generator: Adobe Illustrator 24.3.0, SVG Export Plug-In . SVG Version: 6.00 Build 0)  -->
<svg version="1.1" id="Layer_1" xmlns="http://www.w3.org/2000/svg" xmlns:xlink="http://www.w3.org/1999/xlink" x="0px" y="0px"
	 viewBox="0 0 500 500" style="enable-background:new 0 0 500 500;" xml:space="preserve">
<g>
	<g>
		<path style="fill:#006CB5;" d="M468.636,218.428c3.54,0,6.364,2.845,6.364,6.395c0,3.612-2.824,6.422-6.392,6.422
			c-3.542,0-6.422-2.81-6.422-6.422c0-3.55,2.88-6.395,6.422-6.395H468.636z M468.608,219.426c-2.853,0-5.189,2.413-5.189,5.397
			c0,3.043,2.336,5.432,5.217,5.432c2.88,0.033,5.177-2.388,5.177-5.401c0-3.015-2.297-5.428-5.177-5.428H468.608z M467.396,228.546
			h-1.152v-7.135c0.602-0.087,1.177-0.168,2.044-0.168c1.095,0,1.814,0.23,2.249,0.537c0.426,0.315,0.661,0.799,0.661,1.48
			c0,0.941-0.636,1.507-1.414,1.738v0.057c0.636,0.112,1.065,0.682,1.214,1.734c0.172,1.108,0.343,1.531,0.459,1.759h-1.216
			c-0.171-0.227-0.34-0.882-0.481-1.821c-0.177-0.904-0.637-1.251-1.554-1.251h-0.81V228.546z M467.396,224.597h0.83
			c0.957,0,1.765-0.345,1.765-1.222c0-0.631-0.461-1.252-1.765-1.252c-0.371,0-0.626,0.031-0.83,0.054V224.597z"/>
	</g>
	<path style="fill:#006CB5;" d="M72.857,232.76c3.9,0.373,7.745,1.656,8.654,2.147l3.917-14.93
		c-4.863-0.851-6.395-1.169-11.374-1.651C40.755,215.079,25,233.493,25,253.775c0,8.1,7.16,27.901,33.085,27.901
		c6.799,0,11.062-0.454,12.894-0.706l4.145-16.545c-4.165,1.118-7.516,1.406-12.657,1.406c-8.553,0-13.738-5.306-14.66-10.1
		C45.609,244.294,53.378,230.911,72.857,232.76z"/>
	<polygon style="fill:#006CB5;" points="452.836,234.188 456.4,219.964 410.366,219.964 395.137,280.734 443.612,280.734 
		447.246,266.231 420.355,266.231 422.853,256.428 445.516,256.428 448.945,242.739 426.307,242.739 428.44,234.188 	"/>
	<polygon style="fill:#006CB5;" points="253.124,220.018 253.124,219.996 229.253,228.844 216.248,280.752 237.891,280.752 	"/>
	<polygon style="fill:#006CB5;" points="399.782,219.987 399.782,219.964 378.127,219.964 362.901,280.73 384.551,280.73 	"/>
	<g>
		<polyline style="fill:#006CB5;" points="152.946,219.989 132.002,219.989 126.304,242.157 111.413,242.157 117.112,219.989 
			95.153,219.989 79.928,280.723 101.901,280.723 107.876,257.038 122.577,257.029 116.774,280.723 137.602,280.723 
			152.946,219.989 		"/>
	</g>
	<polygon style="fill:#006CB5;" points="315.763,219.977 312.188,234.243 327.363,234.243 315.38,280.73 337.024,280.73 
		348.669,234.243 365.557,234.243 369.132,219.977 	"/>
	<g>
		<path style="fill:#006CB5;" d="M154.239,257.067l-5.935,23.685h19.64l6.426-23.685h5.083c1.504,7.982,3.395,15.565,4.731,23.685
			h22.004c-2.171-7.757-5.217-17.032-7.195-25.954c9.688-3.01,16.481-8.234,18.762-15.544c0.811-2.606,1.1-4.545,1.248-6.674
			L154.239,257.067z"/>
		<polygon style="fill:#006CB5;" points="154.683,255.293 198.593,219.977 163.53,219.989 		"/>
	</g>
	<path style="fill:#006CB5;" d="M304.158,233.991c-3.486-0.905-8.407-1.633-12.136-1.633c-8.439,0-10.95,2.089-10.95,4.986
		c0,7.2,21.657,7.498,21.657,21.672c0,14.089-12.354,23.032-36.206,23.032c-6.258,0-14.284-0.244-18.814-1.296l3.528-14.083
		c4.449,1.269,11.797,1.815,16.488,1.815c7.338,0,10.826-2.847,10.826-6.386c0-6.527-21.289-6.985-21.289-21.492
		c0-13.79,11.108-22.001,34.925-22.001c5.414,0,10.914,0.824,15.485,1.372L304.158,233.991z"/>
</g>
</svg>
