<svg xmlns="http://www.w3.org/2000/svg" xml:space="preserve" width="2000" height="1500" data-id="lg_riaoN56gyQUhXN3EVU" data-version="1" viewBox="0 0 2000 1500"><path fill="#040046" stroke="transparent" d="M0 0h2000v1500H0z"/><g data-padding="20"><g transform="translate(-1656.53 -1245.193)scale(2.58736)"><rect width="369.631" height="371.77" x="584.629" y="422.292" fill="none" rx="0" ry="0" transform="matrix(.97 0 0 .97 180.16 181.2)"/><g transform="translate(103.66 173.27)"><linearGradient id="a" x1="0" x2="1" y1="0" y2="0" gradientUnits="objectBoundingBox"><stop offset="0%" stop-color="#6ee2f5"/><stop offset="100%" stop-color="#6454f0"/></linearGradient><path fill="url(#a)" d="m908.722 657.642-4.48 25.91q-7.68-1.92-15.99-3.52-7.36-1.6-16.8-2.71-9.43-1.12-19.67-1.12-23.67 0-33.9 7.19-10.24 7.2-10.24 22.23.32 11.84 8.64 19.99 8.31 8.16 20.79 15.04 12.47 6.87 27.35 13.43 14.87 6.56 27.34 15.03 12.48 8.48 20.95 19.83 8.48 11.36 8.48 27.67 0 18.87-8.16 30.39-8.15 11.51-20.63 17.91-12.47 6.4-27.34 8.64-14.88 2.24-28.31 2.24-12.8 0-23.35-1.6-10.56-1.6-18.23-3.52-8.96-2.24-16.32-5.12l6.4-25.91q7.36 3.2 15.67 5.44 7.36 1.92 16.48 3.52 9.11 1.6 19.35 1.6 12.47 0 22.87-1.6 10.39-1.6 18.07-5.12t11.99-9.28q4.32-5.75 4.32-14.07-.32-12.47-8.15-20.31-7.84-7.84-20.79-15.03-12.96-7.2-27.83-13.92-14.87-6.71-27.35-15.35-12.47-8.64-20.95-20.47-8.48-11.84-8.48-29.43 0-10.23 3.52-20.15 3.52-9.91 12-17.59 8.47-7.68 22.07-12.47 13.59-4.8 33.74-4.8 11.52 0 21.91 1.12 10.4 1.12 18.07 2.4 8.96 1.6 16.96 3.51" transform="translate(-103.66 -173.27)"/></g><path fill="url(#a)" d="M955.732 871.632v-239.57l25.59-2.88v101.71q9.6-6.4 19.03-11.19 9.44-4.8 19.36-8.48 9.91-3.68 19.19-3.68 13.11 0 21.91 3.04 8.79 3.04 14.23 10.08 5.44 7.03 7.84 18.55 2.4 11.51 2.4 28.78v103.64h-25.59v-100.76q0-9.59-.32-17.11t-2.72-12.79q-2.4-5.28-7.36-8.16t-13.91-2.88q-8.32 0-17.91 3.68-9.6 3.68-18.23 8.48-8.64 4.79-17.92 11.19v118.35Z"/><g transform="translate(482.2 182)scale(1.97)"><linearGradient id="b" x1="0" x2="1" y1="0" y2="0" gradientUnits="objectBoundingBox"><stop offset="0%" stop-color="#6ee2f5"/><stop offset="100%" stop-color="#6454f0"/></linearGradient><path fill="url(#b)" d="M461.534 331.958s-14.08-2.05-13.02-4.17 8.24-9.57 8.24-9.57l3.99 3.98 1.06-6.9-.94-4.67c0-2.93-3.83-7.54-3.83-7.54s-17.97 10.94-19.76 12-4.55.03-6.7.56-15.14 9.48-15.14 9.48c-9.95-3.99-11.84-1.6-17.42 0s-8.24 8.5-8.24 8.5 5.32.8 6.11.8 8.24 2.4 8.24 2.4-1.32 3.18-2.39 3.98-5.85 11.96-5.85 11.96l4.26-1.33-14.78 34.35c6-1.33 6.67-4.6 17.83 1.5s40.84 5 40.84 5-4.18-8.8-5.59-15c-1.17-5.16 1.37-14.68 1.37-14.68l2.22 1.85s.25-6.9.37-8.77c.46-7.23-2.82-9.67-2.25-10.23 5.05-5 6.16-4.85 10.38-6.5 4.24-1.66 12.07-2.94 12.07-2.94l1.6-3.19-2.13-3.45Zm-56.67 3.33s-10.96-3.14-12.17-4c0 0 3.17-2 5.84-2s2.33 1 2.33 1 3.33-.5 4.83-1 3.84 0 3.84 0Zm26.59-10.66s-1.76 3.83-3.05 3.83-3.4-.67-3.4-.67l-3.2.67 2.38-1.5 8.14-3.83Z" transform="translate(-45.92 -48.27)"/></g></g><path fill="transparent" stroke="transparent" stroke-width="2.683" d="M250 265.653h1500v968.694H250z"/></g></svg>